<?xml version="1.0" standalone="no"?>
<!DOCTYPE svg PUBLIC "-//W3C//DTD SVG 20010904//EN"
 "http://www.w3.org/TR/2001/REC-SVG-20010904/DTD/svg10.dtd">
<svg version="1.0" xmlns="http://www.w3.org/2000/svg"
 width="1280.000000pt" height="931.000000pt" viewBox="0 0 1280.000000 931.000000"
 preserveAspectRatio="xMidYMid meet">

<g transform="translate(0.000000,931.000000) scale(0.100000,-0.100000)"
fill="#000000" stroke="none">
<path d="M7690 8384 c-53 -23 -191 -170 -230 -246 l-34 -66 -111 -6 c-60 -3
-200 -8 -310 -11 -502 -14 -973 -45 -1083 -72 -14 -3 -31 -22 -44 -47 -28 -53
-32 -166 -48 -1211 -15 -1046 -15 -1045 -20 -605 -2 212 -5 363 -7 337 -3 -34
-9 -50 -21 -54 -9 -4 -38 -19 -64 -35 l-48 -27 -2 162 c-1 160 -1 159 -9 -73
-4 -129 -12 -516 -18 -860 -6 -344 -14 -790 -17 -991 l-7 -367 -180 -7 c-313
-13 -929 4 -1467 41 -302 20 -335 21 -354 5 -12 -10 -19 -11 -30 -2 -7 6 -69
18 -137 26 -248 29 -304 37 -316 47 -9 7 7 23 57 56 233 157 584 544 776 854
120 195 204 394 204 487 0 62 -72 315 -133 466 -24 61 -72 165 -106 232 l-61
123 30 15 c20 10 30 23 30 38 0 27 -176 761 -190 795 -13 31 -35 28 -141 -18
-51 -22 -95 -40 -99 -40 -3 0 -19 44 -34 98 -16 53 -30 102 -33 107 -2 6 37
44 87 84 50 40 96 83 102 96 8 18 5 40 -17 104 -33 101 -89 178 -192 266 -130
112 -242 156 -477 191 -398 59 -1111 -111 -1566 -372 -282 -163 -467 -328
-640 -572 -129 -182 -208 -364 -245 -567 -23 -119 -17 -278 13 -354 12 -30 20
-56 18 -58 -2 -2 -27 23 -56 57 -28 33 -56 60 -61 60 -18 0 -8 -38 21 -78 l30
-42 -39 16 c-22 8 -52 14 -68 12 -26 -3 -22 -6 43 -45 39 -23 76 -49 84 -57
11 -14 7 -16 -31 -16 -76 0 -138 -29 -202 -93 -32 -33 -56 -61 -54 -64 3 -2
37 9 77 26 63 27 150 42 150 25 0 -3 -11 -20 -25 -38 -25 -33 -34 -76 -16 -76
6 0 38 25 73 55 91 80 110 74 58 -18 -58 -103 -77 -265 -45 -373 17 -56 67
-109 280 -294 72 -62 134 -116 139 -121 5 -4 -1 -21 -13 -38 -100 -140 -99
-291 3 -444 149 -224 468 -368 658 -297 99 37 189 142 204 240 l6 39 62 -51
c166 -138 255 -221 249 -231 -3 -6 -1 -7 6 -3 13 9 44 -12 36 -24 -3 -4 3 -14
12 -21 12 -10 14 -10 9 -1 -12 20 2 14 57 -26 29 -21 135 -94 237 -162 102
-67 190 -127 195 -133 17 -17 -12 1 -242 154 l-222 147 -33 -18 c-299 -158
-306 -162 -311 -180 -2 -10 10 -28 31 -46 227 -191 492 -324 648 -324 58 0
125 -31 209 -97 l57 -45 -45 -42 c-53 -48 -158 -170 -222 -257 -48 -66 -55
-100 -31 -148 25 -48 148 -154 261 -226 138 -87 216 -146 249 -188 32 -40 116
-292 146 -440 12 -60 20 -110 17 -113 -2 -3 -8 11 -11 31 -4 19 -9 35 -11 35
-3 0 -34 -16 -70 -35 -132 -71 -202 -108 -270 -144 -38 -20 -72 -38 -75 -41
-3 -3 -18 -12 -35 -20 -16 -8 -61 -32 -100 -54 -91 -50 -183 -99 -270 -145
-38 -20 -71 -39 -73 -43 -2 -5 -9 -8 -15 -8 -7 0 -23 -9 -37 -19 -20 -16 -22
-22 -12 -34 9 -10 10 -22 2 -41 -5 -14 -6 -26 -1 -26 5 0 11 -15 14 -34 10
-60 59 -145 112 -194 62 -57 87 -76 106 -80 7 -2 16 -7 19 -12 6 -9 42 -19
100 -26 51 -6 536 -13 1764 -24 599 -5 1091 -12 1094 -15 3 -3 7 -56 10 -118
3 -100 1 -121 -23 -197 -15 -47 -28 -98 -28 -115 -2 -26 3 -31 43 -47 66 -25
154 -23 215 6 88 41 121 96 151 254 14 76 20 93 33 89 9 -2 88 -53 176 -113
271 -185 420 -355 605 -691 55 -99 66 -113 101 -127 107 -43 209 7 209 104 0
32 0 31 79 61 55 20 88 56 107 112 9 29 29 66 44 82 45 49 62 92 58 149 l-3
51 59 32 c33 17 66 39 73 49 17 23 17 66 -1 108 -18 43 -116 176 -180 244 -27
29 -47 55 -43 58 3 3 460 1 1016 -5 l1010 -11 573 -120 c571 -121 1171 -246
1408 -294 69 -14 139 -26 157 -26 19 0 110 33 209 75 232 99 253 111 258 138
2 12 23 128 46 257 126 709 584 3167 911 4885 121 637 188 1011 185 1030 -7
38 -130 224 -246 375 -61 79 -96 115 -125 129 -33 16 -100 24 -380 46 -563 42
-725 54 -1070 75 -181 11 -358 23 -392 26 l-61 6 -4 118 c-4 145 -10 154 -106
169 -154 25 -1566 111 -2122 130 -550 19 -565 19 -600 5z m395 -79 c527 -38
717 -47 1270 -65 291 -10 400 -14 853 -36 78 -4 140 -9 137 -12 -3 -3 -54 -4
-113 -3 -89 2 -121 -2 -175 -20 -69 -22 -147 -79 -147 -106 0 -12 -11 -14 -62
-9 -35 3 -175 11 -313 16 -137 6 -347 15 -465 20 -118 6 -316 14 -440 20 -378
16 -728 32 -873 38 l-137 7 55 74 c31 40 55 75 53 76 -5 5 -137 -171 -149
-199 -13 -28 -36 -34 -45 -12 -8 20 8 47 84 148 l66 87 96 -4 c52 -3 190 -12
305 -20z m-5308 -92 c-20 -2 -52 -2 -70 0 -17 2 0 4 38 4 39 0 53 -2 32 -4z
m131 -10 c-10 -2 -26 -2 -35 0 -10 3 -2 5 17 5 19 0 27 -2 18 -5z m69 -9 c-3
-3 -12 -4 -19 -1 -8 3 -5 6 6 6 11 1 17 -2 13 -5z m7463 -81 c0 -138 -5 -151
-64 -177 l-52 -23 4 -42 c4 -38 0 -47 -32 -80 l-36 -37 10 -59 c5 -32 9 -59 7
-60 -1 -1 -23 -16 -49 -34 -27 -18 -48 -31 -48 -29 -1 2 -5 91 -10 198 -8 179
-7 196 10 220 9 14 29 48 43 75 14 28 36 60 49 72 29 27 91 51 136 52 l32 1 0
-77z m-3010 -157 c0 -9 -19 -15 -64 -18 -108 -9 -163 -57 -175 -152 l-6 -51
-320 4 c-303 3 -688 -12 -716 -30 -17 -10 -56 -183 -68 -305 -6 -60 -15 -266
-21 -459 -6 -192 -15 -467 -20 -610 -5 -143 -14 -393 -20 -555 -5 -162 -15
-419 -20 -570 -52 -1453 -65 -1829 -80 -2285 -5 -176 -12 -352 -15 -390 -4
-49 -2 -76 7 -88 9 -12 82 -30 263 -66 303 -61 1432 -289 3170 -641 297 -60
567 -117 601 -126 l61 -17 132 32 c103 25 713 158 853 187 15 3 31 11 37 18 6
6 44 230 86 496 229 1461 665 4256 725 4644 51 328 67 452 59 462 -20 24 -94
43 -209 54 -241 21 -672 50 -852 56 l-188 7 6 86 c8 139 -22 169 -181 178 -84
5 -95 8 -95 24 0 23 -27 22 300 4 526 -29 1108 -73 1470 -111 218 -22 240 -26
240 -38 0 -20 -70 -410 -260 -1456 -167 -921 -219 -1206 -380 -2075 -32 -176
-91 -493 -130 -705 -146 -793 -411 -2206 -440 -2344 -11 -54 -20 -100 -20
-102 0 -2 8 -4 18 -4 15 0 25 43 76 318 32 174 80 434 107 577 26 143 75 406
108 585 33 179 94 510 136 735 42 226 99 532 126 680 79 426 128 693 425 2293
153 826 281 1502 285 1502 8 0 260 -334 279 -369 7 -15 10 -45 7 -80 -4 -46
-190 -1070 -307 -1691 -16 -85 -70 -375 -120 -645 -50 -269 -109 -586 -130
-702 -137 -731 -240 -1288 -350 -1878 -227 -1218 -205 -1116 -242 -1148 -34
-30 -313 -171 -358 -182 -16 -4 -179 25 -400 70 -206 42 -854 172 -1440 290
-1079 216 -2068 416 -2705 545 -192 39 -365 77 -382 85 -18 8 -56 34 -85 57
-29 24 -74 55 -99 70 -63 37 -189 78 -238 78 l-41 0 0 428 c0 235 4 697 10
1027 35 2159 59 3530 68 3900 7 267 9 293 28 325 11 19 30 40 42 46 14 7 213
15 555 23 292 7 564 13 602 15 225 8 295 6 295 -8z m6 -88 c4 -6 -3 -20 -17
-31 -23 -19 -24 -19 -27 -1 -2 11 -9 24 -14 29 -8 7 -9 4 -4 -8 3 -10 -1 -73
-9 -140 -8 -67 -15 -184 -16 -259 -1 -97 -5 -136 -13 -131 -6 4 -2 -3 8 -15
11 -12 26 -22 35 -21 10 0 7 4 -8 10 -36 14 -22 18 34 9 28 -4 118 -11 200
-14 83 -4 229 -11 325 -16 96 -5 263 -14 370 -20 107 -6 267 -15 355 -20 88
-6 381 -24 650 -40 270 -16 555 -34 635 -40 80 -5 198 -12 263 -16 l117 -7
-32 -24 c-31 -23 -38 -25 -123 -19 -49 3 -200 13 -335 21 -514 32 -579 36
-725 45 -429 28 -1017 62 -1390 80 -345 16 -383 20 -405 38 -20 16 -20 23 -12
182 4 91 5 217 2 280 -3 63 -4 117 -3 119 4 6 67 19 100 20 17 1 35 -4 39 -11z
m3150 -200 c-3 -38 -18 -128 -32 -201 -48 -250 -90 -379 -135 -411 -29 -20
-40 -20 -33 -2 3 9 12 12 22 8 15 -5 15 -4 3 11 -12 15 -11 24 7 65 27 64 58
179 76 282 8 47 20 107 26 135 6 27 9 67 6 90 -4 30 -3 34 3 15 l9 -25 1 27
c1 29 -16 37 -114 54 -22 3 -46 13 -52 22 -8 9 -13 11 -13 4 0 -7 -9 -12 -20
-12 -11 0 -20 6 -20 13 0 8 -4 7 -11 -3 -9 -13 -10 -13 -6 0 6 23 79 27 191
11 l99 -15 -7 -68z m-3136 61 c0 -12 -7 -19 -20 -19 -22 0 -29 35 -7 43 18 6
27 -2 27 -24z m-4372 -39 c187 -24 223 -57 300 -270 54 -148 62 -126 -85 -216
-70 -43 -154 -95 -186 -117 l-58 -38 3 -95 3 -95 -181 -95 -181 -94 -31 68
c-37 83 -53 99 -87 84 -102 -47 -1024 -639 -1083 -697 l-24 -22 21 -41 c33
-64 27 -96 -39 -231 -33 -66 -62 -121 -64 -121 -2 0 -19 26 -37 58 -67 118
-134 205 -240 307 -60 58 -113 105 -117 105 -5 0 -14 11 -20 24 -9 21 -4 38
40 123 187 362 446 689 728 919 387 315 933 497 1338 444z m3697 -20 c99 -5
231 -12 293 -16 l112 -7 0 -206 c0 -187 2 -209 20 -238 33 -55 52 -59 335 -72
143 -6 334 -16 425 -21 392 -22 558 -32 935 -55 220 -14 513 -31 650 -40 496
-30 582 -35 716 -46 141 -10 174 -6 213 29 30 28 44 63 100 258 30 103 59 191
65 197 7 7 92 4 278 -12 148 -12 345 -28 438 -36 94 -8 246 -19 340 -25 93 -6
171 -12 172 -14 2 -1 -17 -128 -41 -282 -68 -425 -320 -2018 -586 -3702 -132
-832 -242 -1517 -245 -1522 -13 -21 -38 -8 -100 50 -147 137 -278 191 -509
210 -65 5 -123 7 -131 4 -8 -3 -17 -22 -20 -42 -27 -175 -92 -273 -248 -377
l-57 -38 -178 36 c-97 20 -343 70 -547 112 -490 101 -1001 205 -2100 430 -500
102 -952 194 -1002 205 -51 11 -109 20 -129 20 l-36 0 6 128 c4 70 20 496 36
947 17 451 52 1430 80 2175 27 745 52 1438 56 1540 l7 184 31 29 c36 34 268
184 311 203 16 6 52 10 80 8 27 -2 131 -8 230 -14z m1010 -30 c94 -6 627 -37
1185 -70 558 -33 1107 -65 1220 -71 113 -6 208 -14 211 -18 12 -11 -47 -240
-67 -262 -17 -19 -26 -21 -94 -15 -95 8 -1061 63 -2040 116 -415 22 -765 43
-777 46 -23 4 -23 7 -23 143 0 76 3 141 8 145 4 5 52 5 107 2 55 -4 177 -11
270 -16z m2635 -50 c0 -29 -1 -30 -47 -29 -27 1 -61 4 -77 8 -26 5 -28 7 -12
20 9 7 42 17 74 21 31 4 58 8 60 9 1 0 2 -12 2 -29z m-6730 -412 c0 -22 -85
-158 -99 -158 -8 0 -45 99 -40 104 10 9 125 75 132 76 4 0 7 -10 7 -22z m-60
-333 c67 -142 122 -263 123 -268 1 -5 -72 -49 -163 -98 l-165 -89 -108 112
c-59 62 -116 129 -126 148 -11 20 -27 84 -37 143 -16 94 -17 109 -4 121 16 14
352 197 356 193 2 -1 57 -119 124 -262z m61 182 l-24 -22 19 27 c10 14 21 24
23 22 3 -3 -6 -15 -18 -27z m94 -215 c37 -183 41 -212 26 -212 -9 0 -116 176
-147 242 -20 43 -15 61 38 132 27 36 34 41 40 28 4 -10 23 -95 43 -190z m-152
173 c-3 -9 -8 -14 -10 -11 -3 3 -2 9 2 15 9 16 15 13 8 -4z m-382 -487 c83
-79 177 -174 210 -213 54 -63 59 -72 53 -105 -16 -94 -120 -257 -200 -313 -57
-40 -36 -48 34 -13 68 34 153 131 202 230 57 116 55 140 -16 205 -31 29 -55
54 -53 56 8 7 316 165 323 165 9 0 140 -274 194 -405 45 -112 97 -279 107
-347 13 -87 -89 -332 -222 -531 -180 -271 -483 -605 -791 -872 -44 -38 -81
-73 -81 -78 -1 -4 15 -1 34 7 l35 15 76 -145 c42 -80 74 -147 72 -150 -9 -8
-355 98 -440 136 -311 138 -762 471 -1070 789 -202 209 -233 260 -259 430 -17
113 -9 189 28 258 17 32 48 91 70 130 21 40 41 73 44 73 4 0 39 -50 79 -110
72 -111 216 -266 273 -296 24 -13 32 -13 55 -1 15 7 187 128 382 268 195 140
387 277 425 304 76 53 145 114 145 128 0 6 -31 79 -70 164 -38 85 -70 163 -70
174 0 28 95 125 155 160 93 54 103 50 276 -113z m-484 -85 c131 -285 132 -287
108 -313 -56 -62 -873 -630 -906 -630 -44 0 -242 253 -363 461 l-26 46 177
115 c328 213 874 537 904 538 3 0 51 -98 106 -217z m3040 -1111 c-1 -53 -3 -7
-3 103 0 110 2 154 3 97 2 -57 2 -147 0 -200z m-4552 9 c50 -23 115 -77 179
-150 l49 -56 -68 -8 c-114 -12 -191 -57 -264 -151 -37 -48 -64 -116 -46 -116
4 0 27 23 53 51 45 51 133 109 164 109 22 0 107 -95 130 -147 18 -42 48 -57
63 -33 11 18 -33 98 -82 151 l-48 52 50 -8 c84 -12 114 -34 156 -115 18 -35
23 -61 23 -115 0 -158 -99 -238 -276 -221 -133 12 -237 65 -343 173 -110 112
-141 181 -133 293 8 112 69 216 155 267 97 57 152 62 238 24z m1945 -1061 c19
-6 105 -17 190 -26 85 -8 158 -18 163 -23 8 -8 -9 -268 -19 -296 -6 -13 -17
-7 -58 33 -38 37 -61 52 -91 57 -22 3 -45 9 -51 13 -10 7 -177 252 -172 252 2
0 19 -5 38 -10z m-530 -156 c0 -2 -13 2 -30 11 -16 9 -30 18 -30 21 0 2 14 -2
30 -11 17 -9 30 -18 30 -21z m949 -77 c26 -95 26 -96 1 -90 -36 9 -42 28 -34
103 4 39 8 69 9 68 2 -2 12 -38 24 -81z m-859 16 l25 -28 -35 30 c-55 47 -56
48 -35 37 11 -6 31 -23 45 -39z m276 -34 c136 -41 189 -52 273 -57 l105 -7 49
-122 c28 -68 47 -126 43 -130 -3 -4 -62 -2 -129 4 -129 12 -385 79 -419 109
-9 9 -33 55 -54 102 -69 161 -66 152 -50 152 7 0 90 -23 182 -51z m-232 -49
c5 -17 4 -20 -2 -10 -5 8 -13 26 -16 40 -5 17 -4 20 2 10 5 -8 13 -26 16 -40z
m25 -75 c0 -5 -4 -3 -9 5 -5 8 -9 22 -9 30 0 16 17 -16 18 -35z m52 -102 c13
-16 12 -17 -3 -4 -17 13 -22 21 -14 21 2 0 10 -8 17 -17z m39 -17 c0 -2 -7 -9
-15 -16 -13 -11 -14 -10 -9 4 5 14 24 23 24 12z m-40 -30 c0 -2 -8 -10 -17
-17 -16 -13 -17 -12 -4 4 13 16 21 21 21 13z m-50 -39 c0 -2 -10 -12 -22 -23
l-23 -19 19 23 c18 21 26 27 26 19z m2778 -124 l-2 -68 -3 63 -4 62 -109 0
c-107 0 -111 -1 -177 -36 -77 -42 -186 -100 -288 -154 -38 -20 -88 -47 -110
-60 -62 -36 -224 -123 -350 -189 -38 -20 -72 -38 -75 -41 -7 -7 -207 -110
-213 -110 -3 0 -8 21 -10 48 -2 26 -4 -2 -5 -61 l-2 -108 143 -93 c78 -51 170
-110 205 -131 34 -21 62 -40 62 -42 0 -6 -4 -4 -221 133 l-196 124 -6 163 c-7
183 -29 290 -96 457 l-38 95 321 5 c177 3 513 6 749 8 l427 2 -2 -67z m-2858
43 c0 -2 -8 -10 -17 -17 -16 -13 -17 -12 -4 4 13 16 21 21 21 13z m-83 -148
c-3 -8 -6 -5 -6 6 -1 11 2 17 5 13 3 -3 4 -12 1 -19z m34 -55 c13 -16 12 -17
-3 -4 -17 13 -22 21 -14 21 2 0 10 -8 17 -17z m2019 -789 c0 -2 -9 0 -20 6
-11 6 -20 13 -20 16 0 2 9 0 20 -6 11 -6 20 -13 20 -16z m110 -59 c0 -3 -18 4
-40 15 -22 11 -40 23 -40 25 0 3 18 -4 40 -15 22 -11 40 -23 40 -25z m-1707
-305 c4 -30 3 -38 -3 -25 -8 19 -14 83 -6 74 2 -2 6 -24 9 -49z m2427 -115
c28 -14 50 -30 50 -35 0 -20 -74 -91 -114 -109 -99 -44 -195 -206 -196 -329 0
-30 -2 -33 -22 -26 -35 10 -39 24 -33 99 17 197 92 341 211 404 49 25 46 26
104 -4z m460 -15 c69 -27 167 -97 215 -152 33 -37 75 -116 113 -210 6 -15 26
-35 44 -44 66 -33 134 -93 168 -148 19 -31 44 -58 55 -61 11 -2 37 -7 58 -10
21 -3 88 -31 149 -62 84 -43 128 -73 191 -132 80 -75 189 -212 202 -252 11
-33 -2 -63 -34 -82 -57 -33 -74 -25 -154 76 -41 50 -114 130 -163 177 -143
138 -324 256 -324 212 0 -5 39 -35 87 -67 139 -95 252 -210 347 -354 46 -69
89 -136 95 -148 19 -36 13 -70 -15 -92 -42 -33 -27 -47 -164 150 -82 120 -274
311 -360 362 -70 40 -103 46 -138 21 -39 -27 -27 -40 36 -39 57 0 61 -2 132
-60 122 -100 196 -181 291 -322 144 -214 155 -250 90 -314 -49 -50 -95 -54
-113 -11 -45 109 -105 223 -150 289 -107 156 -322 353 -386 353 -10 0 -33 -13
-52 -29 l-35 -29 61 1 c76 2 114 -21 210 -132 164 -187 332 -511 305 -584 -21
-55 -96 -74 -144 -37 -13 11 -62 86 -108 167 -96 170 -155 255 -284 408 -79
94 -111 123 -226 204 -74 52 -172 115 -219 139 -47 24 -89 48 -94 53 -21 19
-26 6 -26 -63 0 -110 -28 -197 -88 -277 -47 -63 -155 -91 -203 -52 l-23 18 20
84 c28 121 26 352 -4 511 -35 186 -28 232 44 302 72 70 207 85 311 35 64 -31
153 -121 192 -195 32 -59 32 -59 27 -20 -16 124 -153 268 -281 297 -42 9 -52
15 -48 28 8 21 62 80 88 94 60 33 218 32 305 -3z m4359 -57 l-47 -4 -11 -57
c-17 -88 -55 -157 -123 -229 -60 -62 -61 -66 -33 -60 17 4 59 12 94 19 60 11
66 15 92 56 36 57 53 130 45 196 -7 52 -6 53 23 66 74 30 300 -56 413 -158 35
-32 38 -37 21 -43 -19 -7 -288 -66 -573 -125 -90 -19 -173 -37 -185 -40 -11
-4 -2 7 20 23 103 75 176 189 196 301 l11 62 52 -2 51 -2 -46 -3z m8 -125 c-3
-8 -6 -5 -6 6 -1 11 2 17 5 13 3 -3 4 -12 1 -19z"/>
<path d="M9853 8203 c9 -2 23 -2 30 0 6 3 -1 5 -18 5 -16 0 -22 -2 -12 -5z"/>
<path d="M7308 7853 c-2 -5 0 -53 3 -108 5 -101 8 -88 12 67 2 42 -6 62 -15
41z"/>
<path d="M7405 7850 c-3 -5 -1 -10 4 -10 6 0 11 5 11 10 0 6 -2 10 -4 10 -3 0
-8 -4 -11 -10z"/>
<path d="M7300 7361 c0 -10 19 -25 25 -20 1 2 -3 10 -11 17 -8 7 -14 8 -14 3z"/>
<path d="M7467 7283 c18 -2 50 -2 70 0 21 2 7 4 -32 4 -38 0 -55 -2 -38 -4z"/>
<path d="M7633 7273 c26 -2 67 -2 90 0 23 2 2 3 -48 3 -49 0 -68 -1 -42 -3z"/>
<path d="M7867 7263 c18 -2 50 -2 70 0 21 2 7 4 -32 4 -38 0 -55 -2 -38 -4z"/>
<path d="M8033 7253 c26 -2 67 -2 90 0 23 2 2 3 -48 3 -49 0 -68 -1 -42 -3z"/>
<path d="M8257 7243 c18 -2 50 -2 70 0 21 2 7 4 -32 4 -38 0 -55 -2 -38 -4z"/>
<path d="M8408 7233 c23 -2 61 -2 85 0 23 2 4 4 -43 4 -47 0 -66 -2 -42 -4z"/>
<path d="M8618 7223 c18 -2 45 -2 60 0 15 2 0 4 -33 4 -33 0 -45 -2 -27 -4z"/>
<path d="M8743 7213 c20 -2 54 -2 75 0 20 2 3 4 -38 4 -41 0 -58 -2 -37 -4z"/>
<path d="M8938 7203 c17 -2 47 -2 65 0 17 2 3 4 -33 4 -36 0 -50 -2 -32 -4z"/>
<path d="M9073 7193 c20 -2 54 -2 75 0 20 2 3 4 -38 4 -41 0 -58 -2 -37 -4z"/>
<path d="M9258 7183 c17 -2 47 -2 65 0 17 2 3 4 -33 4 -36 0 -50 -2 -32 -4z"/>
<path d="M9387 7173 c18 -2 50 -2 70 0 21 2 7 4 -32 4 -38 0 -55 -2 -38 -4z"/>
<path d="M9578 7163 c18 -2 45 -2 60 0 15 2 0 4 -33 4 -33 0 -45 -2 -27 -4z"/>
<path d="M9708 7153 c23 -2 59 -2 80 0 20 2 1 4 -43 4 -44 0 -61 -2 -37 -4z"/>
<path d="M9908 7143 c18 -2 45 -2 60 0 15 2 0 4 -33 4 -33 0 -45 -2 -27 -4z"/>
<path d="M10033 7133 c20 -2 54 -2 75 0 20 2 3 4 -38 4 -41 0 -58 -2 -37 -4z"/>
<path d="M10213 7123 c15 -2 39 -2 55 0 15 2 2 4 -28 4 -30 0 -43 -2 -27 -4z"/>
<path d="M3097 7560 c-65 -17 -127 -35 -138 -41 -12 -6 -29 -29 -40 -52 -14
-33 -19 -37 -19 -19 0 27 -14 25 -92 -14 -36 -18 -48 -30 -48 -47 0 -29 93
-181 114 -185 9 -2 57 34 111 85 131 120 156 135 225 130 30 -2 70 -10 87 -18
51 -21 61 -3 39 67 -20 62 -59 111 -96 118 -14 3 -78 -8 -143 -24z"/>
<path d="M2093 7105 c-17 -12 -27 -13 -47 -4 -20 10 -30 9 -51 -5 -14 -9 -25
-26 -25 -38 0 -21 -1 -21 -20 -3 -20 18 -22 17 -108 -41 -167 -112 -347 -308
-464 -502 -28 -48 -55 -88 -60 -90 -21 -9 4 -119 30 -136 20 -12 44 9 147 129
179 211 315 312 553 412 59 24 110 49 114 56 4 7 8 58 8 114 0 91 -2 103 -19
113 -26 13 -33 13 -58 -5z"/>
<path d="M10983 6337 c-145 -62 -263 -115 -263 -119 0 -3 38 -35 85 -69 47
-35 84 -66 83 -70 -6 -12 -903 -1128 -908 -1129 -3 0 -208 157 -455 349 -344
268 -453 347 -461 338 -7 -7 -224 -338 -484 -737 -260 -399 -474 -727 -475
-729 -2 -2 -209 175 -459 393 -251 218 -461 399 -468 401 -8 3 -121 -162 -298
-433 -156 -240 -373 -573 -482 -739 l-197 -303 60 -41 c34 -23 64 -37 68 -33
4 5 198 302 430 659 233 358 428 656 435 663 10 10 107 -71 472 -388 252 -219
462 -399 465 -400 4 0 224 333 489 740 266 407 485 740 489 740 3 0 203 -153
444 -340 242 -187 442 -342 447 -343 4 -1 231 277 505 618 273 341 500 621
504 623 4 1 45 -27 92 -62 l84 -65 7 27 c3 15 18 137 33 272 14 135 28 255 31
268 2 12 1 22 -3 21 -5 0 -126 -51 -270 -112z"/>
<path d="M3565 7121 c-3 -5 2 -28 11 -51 20 -51 35 -35 20 21 -10 39 -19 48
-31 30z"/>
<path d="M3305 6818 c-33 -17 -45 -40 -45 -81 0 -47 25 -104 52 -118 54 -29
121 -2 137 56 14 51 5 76 -25 69 -33 -8 -54 12 -54 52 0 29 -4 34 -22 34 -13
0 -32 -6 -43 -12z"/>
<path d="M3465 6152 c-17 -9 -60 -15 -101 -16 -40 -1 -70 -4 -68 -8 7 -11 -17
-97 -42 -155 -30 -69 -62 -111 -118 -153 -34 -25 -43 -36 -34 -43 9 -6 7 -7
-5 -3 -10 3 -28 -1 -40 -10 -21 -16 -21 -16 18 -10 54 8 191 62 188 74 -1 6
13 22 32 36 54 41 103 96 140 157 31 50 70 139 63 144 -2 1 -16 -5 -33 -13z
m-112 -39 c-7 -2 -21 -2 -30 0 -10 3 -4 5 12 5 17 0 24 -2 18 -5z"/>
<path d="M3560 5690 c0 -12 -12 -26 -32 -36 -18 -9 -87 -49 -153 -89 -146 -88
-217 -124 -404 -205 -180 -78 -241 -99 -471 -162 -135 -37 -204 -50 -257 -51
-39 -1 -75 1 -78 4 -3 4 3 30 14 60 35 92 14 81 -63 -34 l-55 -82 7 -75 8 -75
13 57 c7 32 16 60 21 63 4 3 43 -25 87 -61 101 -84 142 -108 257 -150 229 -81
515 -103 631 -49 55 27 130 110 174 195 72 138 149 347 163 443 l12 89 70 54
c54 42 76 54 93 49 19 -4 23 -1 23 19 0 14 -9 32 -22 40 -30 21 -38 20 -38 -4z
m-164 -197 c-3 -10 -8 -31 -12 -48 -18 -78 -61 -127 -219 -247 -114 -86 -333
-206 -458 -249 -37 -13 -38 -13 -64 20 -19 25 -28 29 -34 19 -5 -7 -6 -20 -4
-28 8 -26 -9 -39 -64 -50 -66 -12 -122 -4 -164 24 -30 20 -97 117 -97 141 0 6
55 23 123 39 170 39 387 108 547 172 135 55 359 167 409 204 33 24 44 25 37 3z
m-96 -302 c0 -32 -74 -169 -125 -232 -89 -108 -178 -147 -314 -135 -121 10
-271 29 -271 35 0 4 40 19 88 34 163 52 354 155 527 285 82 62 95 64 95 13z"/>
<path d="M3350 4932 c0 -38 -31 -107 -63 -141 -29 -30 -178 -111 -206 -111 -6
0 -11 -5 -11 -11 0 -18 109 -5 162 19 72 32 125 86 145 148 12 39 14 62 7 81
-11 32 -34 42 -34 15z"/>
<path d="M2019 6171 c-27 -27 -29 -35 -29 -100 0 -83 10 -114 44 -136 86 -56
212 35 208 149 -1 45 -8 54 -24 38 -17 -17 -64 -15 -82 4 -9 8 -16 29 -16 45
0 27 -3 29 -36 29 -26 0 -43 -8 -65 -29z"/>
<path d="M6254 1574 c-21 -14 -52 -38 -67 -53 -39 -36 -101 -121 -94 -128 4
-3 29 13 56 36 55 47 156 159 149 166 -3 3 -22 -7 -44 -21z"/>
<path d="M5812 6690 c0 -14 2 -19 5 -12 2 6 2 18 0 25 -3 6 -5 1 -5 -13z"/>
<path d="M5812 6630 c0 -19 2 -27 5 -17 2 9 2 25 0 35 -3 9 -5 1 -5 -18z"/>
</g>
</svg>
